<?xml version="1.0" encoding="UTF-8"?>
<svg width="94px" height="94px" viewBox="0 0 94 94" version="1.1" xmlns="http://www.w3.org/2000/svg" xmlns:xlink="http://www.w3.org/1999/xlink">
    <!-- Generator: Sketch 48.2 (47327) - http://www.bohemiancoding.com/sketch -->
    <title>Group 12</title>
    <desc>Created with Sketch.</desc>
    <defs></defs>
    <g id="投票上币" stroke="none" stroke-width="1" fill="none" fill-rule="evenodd" transform="translate(-1314.000000, -717.000000)">
        <g id="Group-12" transform="translate(1316.000000, 719.000000)">
            <circle id="Oval-3" stroke="#262A42" stroke-width="3" cx="45" cy="45" r="45"></circle>
            <g id="申请-(1)" transform="translate(25.000000, 23.000000)" fill="#C7CCE6" fill-rule="nonzero">
                <path d="M37.6763187,34.5845045 C37.5154209,36.1989189 37.0097419,38.5513514 34.5732884,42.6796396 L24.4597082,42.6796396 C23.3564085,40.8345946 19.7247138,35.507027 14.3001571,34.7459459 C13.4726824,34.6306306 12.3463973,34.0771171 12.3463973,33.685045 C12.3463973,33.2237838 13.1279012,32.7855856 13.4726824,32.6702703 C13.4956678,32.6702703 15.2655443,32.0245045 16.7825814,32.0245045 C17.4951291,32.0245045 19.3109764,32.7625225 20.2303928,33.3390991 L21.977284,34.4461261 L21.977284,15.8111712 C21.977284,15.0731532 22.482963,14.4735135 23.0805836,14.4735135 L23.2874523,14.4735135 C23.9080584,14.4735135 24.390752,15.0731532 24.390752,15.8111712 L24.390752,26.6738739 L26.6663075,26.6738739 L26.6663075,12.7437838 C26.6663075,12.0057658 27.1719865,11.4061261 27.7696072,11.4061261 L27.9764759,11.4061261 C28.5970819,11.4061261 29.0797755,12.0057658 29.0797755,12.7437838 L29.0797755,26.6738739 L31.3553311,26.6738739 L31.3553311,17.2410811 C31.3553311,16.5030631 31.8610101,15.9034234 32.4586308,15.9034234 L32.6654994,15.9034234 C33.2861055,15.9034234 33.7687991,16.5030631 33.7687991,17.2410811 L33.7687991,26.6738739 L36.0443547,26.6738739 L36.0443547,20.3545946 C36.0443547,19.6857658 36.4351066,19.2014414 36.7798878,19.2014414 L36.9407856,19.2014414 C37.2855668,19.2014414 37.6763187,19.6857658 37.6763187,20.3545946 L37.6763187,34.5845045 Z M39.9748597,20.3545946 C39.9748597,18.4634234 38.6187205,16.8951351 36.963771,16.8951351 L36.8028732,16.8951351 C36.5500337,16.8951351 36.2971942,16.9412613 36.0673401,17.0104505 C35.952413,15.1423423 34.4583614,13.6201802 32.6884848,13.6201802 L32.4816162,13.6201802 C32.0908642,13.6201802 31.7230976,13.6893694 31.3783165,13.8277477 L31.3783165,12.7668468 C31.3783165,10.7834234 29.8382941,9.14594595 27.9764759,9.14594595 L27.7696072,9.14594595 C25.9997306,9.14594595 24.5516498,10.5989189 24.390752,12.4209009 C24.0459708,12.2825225 23.6552189,12.2133333 23.2644669,12.2133333 L23.0575982,12.2133333 C21.19578,12.2133333 19.6557576,13.8508108 19.6557576,15.8342342 L19.6557576,30.5484685 C18.667385,30.1333333 17.5640853,29.7643243 16.7366105,29.7643243 C14.8058361,29.7643243 12.7371493,30.5023423 12.6452076,30.5254054 C11.656835,30.8713514 10.0018855,31.9322523 10.0018855,33.7081081 C10.0018855,36.0144144 12.8520763,36.8908108 13.955376,37.0522523 C19.2190348,37.7672072 23.0346128,44.9859459 23.0346128,44.9859459 L35.7915152,44.9859459 C35.7915152,44.9859459 39.5841077,37.7441441 39.8829181,34.9304505 C39.9978451,34.7228829 39.9748597,20.3545946 39.9748597,20.3545946 Z" id="Shape"></path>
                <path d="M14.070303,38.5513514 L4.09463524,38.5513514 C3.33611672,38.5513514 2.71551066,37.9286486 2.71551066,37.1675676 L2.71551066,4.16432432 C2.71551066,3.40324324 3.33611672,2.78054054 4.09463524,2.78054054 L30.1371044,2.78054054 C30.8956229,2.78054054 31.516229,3.40324324 31.516229,4.16432432 L31.516229,9.88396396 C31.516229,10.645045 32.136835,11.2677477 32.8953535,11.2677477 C33.6538721,11.2677477 34.2744781,10.645045 34.2744781,9.88396396 L34.2744781,4.16432432 C34.2744781,1.90414414 32.4356453,0.036036036 30.1600898,0.036036036 L4.11762065,0.036036036 C1.86505051,0.036036036 0.00323232323,1.88108108 0.00323232323,4.16432432 L0.00323232323,37.1675676 C0.00323232323,39.4277477 1.8420651,41.2958559 4.11762065,41.2958559 L14.0932884,41.2958559 C14.851807,41.2958559 15.472413,40.6731532 15.472413,39.9120721 C15.472413,39.150991 14.8288215,38.5513514 14.070303,38.5513514 Z M23.5862626,7.62378378 L6.46213244,7.62378378 C5.70361392,7.62378378 5.08300786,8.24648649 5.08300786,9.00756757 C5.08300786,9.76864865 5.70361392,10.3913514 6.46213244,10.3913514 L23.5862626,10.3913514 C24.3447811,10.3913514 24.9653872,9.76864865 24.9653872,9.00756757 C24.9653872,8.22342342 24.3447811,7.62378378 23.5862626,7.62378378 Z M17.1963187,13.8046847 L6.46213244,13.8046847 C5.70361392,13.8046847 5.08300786,14.4273874 5.08300786,15.1884685 C5.08300786,15.9495495 5.70361392,16.5722523 6.46213244,16.5722523 L17.1963187,16.5722523 C17.9548373,16.5722523 18.5754433,15.9495495 18.5754433,15.1884685 C18.5754433,14.4273874 17.9548373,13.8046847 17.1963187,13.8046847 Z M16.9664646,19.9855856 L6.46213244,19.9855856 C5.70361392,19.9855856 5.08300786,20.6082883 5.08300786,21.3693694 C5.08300786,22.1304505 5.70361392,22.7531532 6.46213244,22.7531532 L16.9664646,22.7531532 C17.7249832,22.7531532 18.3455892,22.1304505 18.3455892,21.3693694 C18.3455892,20.6082883 17.7249832,19.9855856 16.9664646,19.9855856 Z M16.6676543,26.1664865 L6.46213244,26.1664865 C5.70361392,26.1664865 5.08300786,26.7891892 5.08300786,27.5502703 C5.08300786,28.3113514 5.70361392,28.9340541 6.46213244,28.9340541 L16.6676543,28.9340541 C17.4261728,28.9340541 18.0467789,28.3113514 18.0467789,27.5502703 C18.0467789,26.7891892 17.4261728,26.1664865 16.6676543,26.1664865 Z" id="Shape"></path>
            </g>
        </g>
    </g>
</svg>