<?xml version="1.0" standalone="no"?><!DOCTYPE svg PUBLIC "-//W3C//DTD SVG 1.1//EN" "http://www.w3.org/Graphics/SVG/1.1/DTD/svg11.dtd"><svg t="1520218903024" class="icon" style="" viewBox="0 0 1024 1024" version="1.1" xmlns="http://www.w3.org/2000/svg" p-id="6018" xmlns:xlink="http://www.w3.org/1999/xlink" width="200" height="200"><defs><style type="text/css"></style></defs><path d="M218.337 471.158c-2.723-5.988-4.082-13.886-4.082-23.691 0-5.988 1.633-13.613 4.898-22.871 3.27-9.258 7.078-16.063 11.438-20.418-0.543-6.535 0.543-14.434 3.265-23.692 2.723-9.257 6.262-15.793 10.621-19.601 0-42.477 13.883-86.317 41.657-131.512 27.773-45.199 60.719-77.055 98.84-95.57 42.476-20.149 91.757-30.223 147.847-30.223 40.844 0 81.41 8.442 121.707 25.324 14.703 5.989 28.321 13.071 40.844 21.235 12.527 8.172 23.418 16.883 32.672 26.14 9.258 9.258 17.43 19.606 24.508 31.039 7.078 11.438 13.613 22.598 19.605 33.493 5.988 10.89 10.891 23.687 14.703 38.39 3.809 14.703 7.621 28.317 11.434 40.84 3.812 12.527 7.082 27.504 9.805 44.93l0.816 2.449c16.879 25.051 25.32 47.648 25.32 67.797 0 4.355-1.359 10.621-4.082 18.789-2.722 8.168-4.082 13.883-4.082 17.152v1.633c0 1.09 0.543 1.906 1.633 2.453 1.09 0.543 1.359 0.813 0.816 0.813 23.415 34.851 41.93 67.527 55.547 98.023 13.614 30.492 20.145 62.078 19.602 94.75 0 13.07-2.992 28.32-8.984 45.742-5.993 17.43-14.434 26.141-25.325 26.141-2.722 0-5.715-1.086-8.984-3.266a29.144 29.144 0 0 1-8.172-8.168c-2.176-3.269-5.172-7.078-8.984-11.437-3.813-4.356-6.262-8.442-7.352-12.254-1.09-3.809-2.992-7.895-5.719-12.25-2.722-4.356-4.082-6.809-4.082-7.352-0.543-0.546-1.09-0.816-1.632-0.816l-2.45 1.633c-17.972 46.832-38.121 80.867-60.445 102.105 6.531 5.989 16.063 11.707 28.586 17.153 12.527 5.445 22.871 11.707 31.043 18.789 8.168 7.078 13.613 17.152 16.336 30.222-0.547 1.09-1.09 3.539-1.633 7.352-0.547 3.808-1.637 6.531-3.269 8.168-19.606 29.406-65.618 44.109-138.047 44.109-15.789 0-32.399-1.363-49.825-4.082-17.425-2.722-32.402-5.719-44.925-8.988-12.528-3.27-28.321-7.899-47.379-13.887-4.903-1.633-8.442-2.722-10.617-3.265-4.36-1.09-11.438-1.907-21.239-2.454-9.804-0.543-15.793-0.543-17.972 0-12.524 13.618-31.856 23.418-57.993 29.411-26.14 5.988-51.734 8.984-76.785 8.984-10.89 0-21.508-0.273-31.855-0.816-10.348-0.547-24.504-1.907-42.477-4.086-17.969-2.176-33.219-5.172-45.742-8.985-12.523-3.812-23.961-10.074-34.309-18.789-10.343-8.711-15.246-18.242-14.703-28.586 0-12.527 1.637-21.511 4.903-26.957 3.269-5.445 9.531-13.07 18.789-22.871 3.265-0.547 9.254-2.453 17.968-5.719 8.715-3.265 16.336-4.898 22.872-4.898 1.089 0 3.269-0.547 6.535-1.637 0.543-0.543 0.816-1.086 0.816-1.633l-0.816-1.632c-14.703-3.266-31.039-19.059-49.008-47.375-17.973-28.321-29.137-52.278-33.492-71.883l-2.453-0.817c-1.09 0-2.993 2.993-5.715 8.985-5.446 12.523-13.614 23.691-24.508 33.488-10.891 9.805-22.598 15.52-35.125 17.156h-0.816c-1.09 0-1.907-0.543-2.45-1.633a5.345 5.345 0 0 0-2.449-2.453c-7.082-16.879-10.621-32.125-10.621-45.742 0-83.863 38.391-154.656 115.172-212.379z m0 0" fill="#E7402E" p-id="6019"></path><path d="M237.725 404.178s411.638 45.771 588.819-4.494l16.848 73.107s-226.443 90.732-625.055 4.994l-2.667-41.377 22.055-32.23z" fill="#F4DD50" p-id="6020"></path><path d="M376.389 935.42c-11.081 0-22.063-0.281-32.641-0.836-10.661-0.563-25.293-1.968-43.496-4.174-18.751-2.271-35.004-5.477-48.306-9.526-14.42-4.389-27.745-11.679-39.603-21.666-17.309-14.577-20.486-29.949-20.04-40.422 0.036-15.247 2.339-26.473 7.038-34.309 3.871-6.448 10.657-14.773 20.749-25.457a14.999 14.999 0 0 1 8.427-4.494c0.813-0.136 4.312-0.897 15.182-4.971l0.196-0.073c-8.871-8.729-17.901-20.369-27.198-35.019-10.977-17.296-19.479-32.94-25.63-47.201-5.024 7.207-10.986 13.924-17.843 20.09-13.129 11.821-27.67 18.847-43.212 20.876-0.645 0.084-1.293 0.126-1.943 0.126h-0.816c-5.781 0-11.081-2.806-14.399-7.478a15.005 15.005 0 0 1-4.332-5.805c-7.822-18.645-11.789-35.987-11.789-51.545 0-85.31 37.925-158.566 112.766-217.891-1.124-5.405-1.676-11.433-1.676-18.179 0-7.772 1.881-16.886 5.752-27.86 3.001-8.496 6.455-15.36 10.476-20.788 0.211-6.774 1.529-14.22 3.983-22.565 2.603-8.848 5.931-15.874 10.096-21.27 1.228-43.284 15.945-88.15 43.793-133.465 29.162-47.46 64.512-81.512 105.066-101.209l0.125-0.06c44.301-21.015 96.207-31.67 154.276-31.67 42.626 0 85.499 8.901 127.432 26.459a275.1 275.1 0 0 1 11.461 4.978c7.521 3.474 10.801 12.387 7.328 19.907s-12.386 10.801-19.908 7.328a244.457 244.457 0 0 0-10.266-4.457l-0.136-0.056c-38.265-16.03-77.263-24.159-115.911-24.159-53.561 0-101.121 9.672-141.36 28.748-35.304 17.166-66.44 47.411-92.546 89.898-26.168 42.583-39.437 84.187-39.437 123.659a15 15 0 0 1-5.132 11.297c-0.761 0.665-3.451 3.535-6.099 12.537-2.72 9.25-2.974 15.013-2.708 18.218a14.997 14.997 0 0 1-4.348 11.854c-1.539 1.538-4.611 5.505-7.895 14.801-3.34 9.47-4.042 14.948-4.042 17.875 0 9.476 1.488 14.737 2.736 17.482a15 15 0 0 1-4.641 18.199c-73.471 55.234-109.186 120.782-109.186 200.389 0 9.814 2.296 20.99 6.833 33.298 6.766-2.154 13.229-6.045 19.592-11.774 9.234-8.304 16.226-17.831 20.788-28.322l0.099-0.222c3.217-7.081 8.078-17.781 19.372-17.781 1.612 0 3.213 0.26 4.742 0.769l2.453 0.817c5 1.666 8.758 5.833 9.901 10.978 3.955 17.805 14.558 40.38 31.514 67.098 20.551 32.385 33.629 39.444 39.596 40.77a15.002 15.002 0 0 1 10.164 7.935l0.816 1.632a14.99 14.99 0 0 1 1.583 6.708c0 4.534-1.85 8.88-5.209 12.24a15.005 15.005 0 0 1-5.858 3.623c-5.193 1.732-8.356 2.408-11.283 2.408-4.698 0-10.623 1.327-17.61 3.945-7.291 2.732-12.057 4.291-15.353 5.217-8.394 9.117-12.137 14.268-13.806 17.047-0.458 0.764-2.763 5.313-2.763 19.236 0 0.262-0.007 0.524-0.021 0.786-0.105 1.995-0.423 8.065 9.386 16.327 8.736 7.357 18.498 12.711 29.014 15.912 11.632 3.542 26.159 6.383 43.178 8.444 17.534 2.125 31.484 3.471 41.465 3.998 10.051 0.527 20.504 0.795 31.063 0.795 23.801 0 48.509-2.895 73.436-8.605 23.006-5.276 39.931-13.668 50.301-24.944a14.997 14.997 0 0 1 7.415-4.401c3.374-0.84 8.302-1.205 22.428-0.422 10.856 0.606 18.72 1.547 24.047 2.879 2.543 0.635 6.34 1.795 11.6 3.546 18.682 5.868 34.341 10.458 46.547 13.645 11.989 3.129 26.608 6.05 43.452 8.682 16.596 2.589 32.581 3.902 47.51 3.902 66.76 0 109.007-12.593 125.567-37.431 0.228-0.341 0.469-0.673 0.724-0.994 0.053-0.233 0.116-0.558 0.178-0.985 0.313-2.191 0.629-4.033 0.975-5.624-2.169-8.098-5.672-14.165-10.653-18.482-6.984-6.052-16.135-11.559-27.199-16.368-14.2-6.176-24.91-12.669-32.744-19.854a15 15 0 0 1-0.201-21.922c20.593-19.592 39.696-52.097 56.779-96.611 1.113-2.9 3.1-5.384 5.685-7.107l2.45-1.634a15.004 15.004 0 0 1 8.32-2.519c4.551 0 8.907 1.86 12.267 5.238a15.017 15.017 0 0 1 3.487 5.522c0.346 0.625 1.109 1.944 2.68 4.458 3.444 5.5 5.943 10.912 7.42 16.073 0.215 0.752 1.056 2.889 4.217 6.5 4.305 4.923 7.634 9.175 10.184 13.005a14.175 14.175 0 0 0 4.003 3.997c0.549 0.366 0.949 0.582 1.201 0.704 3.986-0.663 8.058-8.562 10.606-15.974 5.42-15.759 8.168-29.507 8.168-40.864 0-0.083 0-0.166 0.002-0.249 0.504-30.323-5.653-60.06-18.3-88.385-12.978-29.064-30.841-60.679-53.11-93.996-3.947-3.335-6.189-8.103-6.189-13.409v-1.633c0-5.075 1.496-11.827 4.852-21.895 3.074-9.219 3.313-13.082 3.313-14.046 0-17.011-7.657-37.001-22.76-59.415a15.011 15.011 0 0 1-1.79-3.638l-0.816-2.449a15.012 15.012 0 0 1-0.59-2.429c-2.6-16.642-5.741-31.068-9.334-42.879-3.858-12.671-7.763-26.616-11.604-41.444-3.479-13.42-7.963-25.171-13.327-34.925-5.818-10.579-12.283-21.625-19.216-32.828-6.433-10.391-13.956-19.922-22.359-28.326-5.857-5.858-5.857-15.355 0-21.213 5.858-5.857 15.356-5.857 21.213 0 10.037 10.037 19.004 21.392 26.655 33.75 7.203 11.64 13.93 23.132 19.995 34.16 6.564 11.938 11.974 26.02 16.08 41.854 3.737 14.426 7.527 27.962 11.264 40.235 3.878 12.745 7.245 27.983 10.012 45.316 17.638 26.72 26.579 51.686 26.579 74.229 0 6.126-1.542 13.604-4.852 23.533-1.504 4.514-2.326 7.516-2.774 9.444 0.38 0.626 0.706 1.267 0.979 1.912 23.029 34.512 41.586 67.423 55.176 97.858 14.432 32.322 21.465 66.301 20.905 100.999-0.02 14.655-3.316 31.64-9.799 50.487-10.306 29.971-27.174 36.263-39.51 36.263-5.726 0-11.549-1.947-17.307-5.787a44.203 44.203 0 0 1-12.33-12.327c-1.795-2.697-4.417-6.02-7.795-9.884-2.759-3.151-5.008-6.25-6.776-9.341-12.603 28.181-26.117 50.732-40.854 68.179 3.491 1.928 7.433 3.849 11.811 5.752 13.858 6.023 25.595 13.159 34.884 21.208 10.669 9.246 17.801 22.198 21.197 38.498a15.004 15.004 0 0 1-0.815 8.772c-0.105 0.444-0.339 1.551-0.653 3.756-0.923 6.428-2.986 11.461-6.29 15.334-23.067 33.523-72.115 49.826-149.876 49.826-16.472 0-34.014-1.434-52.137-4.261-17.835-2.786-33.446-5.914-46.402-9.295-12.706-3.316-28.884-8.057-48.086-14.09a9.994 9.994 0 0 1-0.245-0.079c-5.633-1.876-8.28-2.636-9.509-2.943-1.93-0.482-6.885-1.386-18.441-2.031-5.012-0.277-8.336-0.369-10.501-0.382-14.46 13.53-35.036 23.42-61.276 29.438-27.13 6.216-54.092 9.366-80.143 9.366z" fill="#3D100B" p-id="6021"></path><path d="M329.225 480.753l-2.667 162 91.333 6-8.666-182z" fill="#F4DD50" p-id="6022"></path><path d="M682.44 786.825c-4.797 0-9.51-2.296-12.413-6.56-4.663-6.848-2.891-16.179 3.957-20.841a135.954 135.954 0 0 0 11.932-9.15 146.303 146.303 0 0 0 9.881-9.324c5.756-5.958 15.252-6.122 21.21-0.365s6.122 15.252 0.365 21.21a176.148 176.148 0 0 1-11.92 11.246 166.08 166.08 0 0 1-14.584 11.182 14.939 14.939 0 0 1-8.428 2.602zM735.356 726.626c-2.389 0-4.813-0.572-7.066-1.779-7.303-3.91-10.055-13-6.145-20.304 6.576-12.284 11.766-25.526 15.426-39.358 4.153-15.695 6.209-31.633 6.113-47.372-0.051-8.284 6.623-15.041 14.907-15.092 8.278-0.067 15.042 6.623 15.092 14.907 0.113 18.39-2.279 36.972-7.11 55.23-4.255 16.082-10.304 31.506-17.979 45.843-2.704 5.051-7.885 7.925-13.238 7.925z" fill="#FFFFFF" p-id="6023"></path></svg>